<svg width="101" height="101" viewBox="0 0 101 101" fill="none" xmlns="http://www.w3.org/2000/svg">
<path fill-rule="evenodd" clip-rule="evenodd" d="M50.5 101C22.6108 101 0 78.3892 0 50.5C0 22.6108 22.6108 0 50.5 0C78.3913 0 101 22.6108 101 50.5C101 78.3913 78.3892 101 50.5 101ZM50.5 97.1153C76.2459 97.1153 97.1164 76.245 97.1164 50.4989C97.1164 24.7552 76.2461 3.8847 50.5 3.8847C24.7563 3.8847 3.88576 24.755 3.88576 50.4989C3.88576 76.2448 24.7561 97.1153 50.5 97.1153ZM55.032 28.4704C53.8457 28.4704 52.9085 28.0946 52.2211 27.3424C51.5338 26.5901 51.1906 25.5921 51.1906 24.3491C51.1906 22.583 51.7679 20.9968 52.9242 19.5907C54.0797 18.1836 55.4694 17.4805 57.0938 17.4805C58.3435 17.4805 59.2331 17.9062 59.7646 18.7568C60.2953 19.6065 60.561 20.6862 60.561 21.9942C60.561 23.6304 60.0304 25.1182 58.9682 26.4596C57.906 27.8001 56.5938 28.4707 55.0319 28.4707L55.032 28.4704ZM50.2535 74.2955C50.191 74.5571 50.1285 74.9003 50.066 75.3252C50.0035 75.7509 49.9719 76.0616 49.9719 76.2574C49.9719 77.043 50.3468 77.4354 51.0965 77.4354C51.5339 77.4354 51.9871 77.3204 52.4553 77.0913C52.9243 76.8631 53.3925 76.6015 53.8607 76.3066C54.3297 76.0125 54.7513 75.7509 55.1261 75.5218C55.501 75.2927 55.8135 75.1786 56.0634 75.1786C56.6882 75.1786 57.1255 75.8325 57.3755 77.1405C56.3133 77.991 55.1728 78.7924 53.9548 79.5446C52.7369 80.2969 51.5656 80.9675 50.4408 81.5565C49.3161 82.1447 48.2539 82.6196 47.2543 82.9794C46.2555 83.3393 45.4432 83.5184 44.8184 83.5184C44.1311 83.5184 43.4754 83.3718 42.8506 83.0769C42.2258 82.7828 41.9134 82.0797 41.9134 80.9676C41.9134 80.7709 41.9442 80.4277 42.0067 79.937C42.0692 79.4463 42.1317 79.1031 42.1942 78.9065C43.5688 71.907 44.6617 66.3302 45.474 62.1766C46.2863 58.0228 46.8953 54.8498 47.3018 52.6586C47.7075 50.4669 47.9733 49.0113 48.0983 48.2915C48.2232 47.5717 48.2857 47.1469 48.2857 47.0161C48.2857 46.2313 48.0041 45.8389 47.4418 45.8389C47.1919 45.8389 46.817 45.9531 46.318 46.1822C45.8181 46.4112 45.2866 46.6395 44.7243 46.8686C44.1619 47.0977 43.6471 47.3268 43.1781 47.5559C42.7099 47.785 42.3508 47.8992 42.1009 47.8992C41.726 47.8992 41.4444 47.7026 41.257 47.3102C41.0695 46.9178 40.9137 46.4596 40.7888 45.9364C41.9134 45.2825 43.2256 44.5468 44.7242 43.7287C46.2238 42.9114 47.6767 42.1425 49.0822 41.4228C50.4876 40.703 51.7372 40.1149 52.8302 39.6567C53.9232 39.1985 54.658 38.9694 55.032 38.9694C56.0942 38.9694 56.6257 39.5259 56.6257 40.638C56.6257 41.0962 56.5632 41.5861 56.4382 42.1101L50.2535 74.2955Z" fill="white"/>
</svg>
