<svg width="101" height="101" viewBox="0 0 101 101" fill="none" xmlns="http://www.w3.org/2000/svg">
<path d="M71.9918 63.8453C75.6355 59.4471 77.261 55.4881 77.261 51.0057C77.261 46.7258 75.8059 42.7906 73.1609 39.9212C70.5111 37.0481 66.8722 35.4661 62.9179 35.4661C59.9823 35.4661 57.2908 36.3957 54.9175 38.2293C53.7436 39.1372 51.9839 41.2463 50.4588 43.2173C48.9583 41.2568 47.2164 39.1495 46.0274 38.2274C43.656 36.3956 40.9646 35.4659 38.029 35.4659C34.0719 35.4659 30.4348 37.0487 27.7833 39.9209C25.1393 42.7903 23.6832 46.7256 23.6832 51.0054C23.6832 55.4869 25.3087 59.4488 28.9524 63.845C31.5377 66.9672 40.5707 74.8738 47.1418 80.5537C48.1074 81.3848 49.2888 81.8014 50.4702 81.8014C51.6535 81.8014 52.8359 81.3848 53.7986 80.5518C64.0765 71.6768 70.0293 66.2116 71.9916 63.8448L71.9918 63.8453ZM51.3223 77.6855C50.8271 78.1086 50.1077 78.1086 49.6135 77.6855C45.8884 74.4659 34.5511 64.6678 31.8671 61.4283C28.8244 57.7572 27.469 54.5422 27.469 51.0045C27.469 47.6787 28.5681 44.6533 30.5664 42.4881C32.491 40.4007 35.1398 39.2516 38.0261 39.2516C40.105 39.2516 42.0154 39.9152 43.7063 41.2206C44.5375 41.8644 46.3239 43.9803 48.3724 46.7435C48.8581 47.3986 49.6325 47.7934 50.4428 47.7934H50.4476C51.257 47.7934 52.0304 47.4043 52.5141 46.7558C54.6006 43.9773 56.4087 41.8577 57.2285 41.2235C61.2728 38.0994 67.0625 38.8956 70.371 42.4883C72.3695 44.6533 73.4685 47.6779 73.4685 51.0046C73.4685 54.5434 72.1128 57.7581 69.0711 61.4285C67.2743 63.6011 61.3017 69.0719 51.322 77.6856L51.3223 77.6855Z" fill="white"/>
<path d="M40.1256 81.6505C39.2461 81.0863 38.076 81.3353 37.5089 82.2148C37.0205 82.9711 36.5537 83.6082 36.0331 84.2245C35.0372 85.4183 31.8005 88.6115 22.0394 97.0472C21.7895 97.2621 21.427 97.2573 21.1865 97.0538C11.417 88.6104 8.18018 85.4172 7.19092 84.2312C4.80721 81.3409 3.78957 78.9451 3.78957 76.2233C3.78957 73.6767 4.62264 71.3763 6.14584 69.7385C8.60349 67.0567 12.9003 66.3978 16.0159 68.7938C16.6341 69.2662 18.0598 70.9456 19.6056 73.0179C20.0486 73.6597 20.7795 74.0535 21.5586 74.0677C22.3481 74.0573 23.0808 73.7222 23.5371 73.1144C23.9707 72.5426 24.6561 71.6518 25.3869 70.7601C26.0505 69.9507 25.9331 68.7588 25.1237 68.0952C24.3144 67.4316 23.1225 67.5499 22.4589 68.3593C22.1654 68.7162 21.8795 69.0741 21.6126 69.4121C20.4709 67.958 19.209 66.4707 18.3191 65.7902C13.7021 62.2429 7.08867 63.0996 3.36064 67.1704C1.19371 69.5002 0 72.7151 0 76.2233C0 79.85 1.31682 83.0648 4.27526 86.6491C5.85524 88.5424 10.7108 93.0052 18.7177 99.9261C19.5555 100.642 20.5798 101 21.606 101C22.6351 101 23.665 100.639 24.5076 99.9195C32.5042 93.007 37.3606 88.5442 38.9329 86.6604C39.553 85.9258 40.1125 85.1656 40.6928 84.2663C41.257 83.3887 41.0052 82.2177 40.1257 81.6506L40.1256 81.6505Z" fill="white"/>
<path d="M88.9198 63.5278C86.5248 63.5278 84.3191 64.2898 82.368 65.7884C81.4809 66.4691 80.2257 67.9402 79.0716 69.4152C78.8046 69.0753 78.5187 68.7175 78.2243 68.3606C77.5607 67.5493 76.3669 67.4328 75.5594 68.0964C74.75 68.7601 74.6336 69.9538 75.2963 70.7613C76.0271 71.654 76.7125 72.5439 77.1385 73.1034C77.6033 73.7244 78.3474 74.0595 79.1256 74.0699C79.9056 74.0548 80.6374 73.66 81.0369 73.0759C82.6254 70.9478 84.0512 69.2694 84.6721 68.7941C87.7829 66.4019 92.077 67.0504 94.5478 69.7503C96.0605 71.3776 96.8936 73.678 96.8936 76.2246C96.8936 78.9471 95.8769 81.3432 93.4988 84.2249C92.5029 85.4187 89.2662 88.6119 79.5061 97.0476C79.2562 97.2625 78.8937 97.2577 78.6532 97.0542C68.8837 88.6108 65.6469 85.4176 64.6433 84.2146C64.1302 83.6087 63.6645 82.9716 63.175 82.2152C62.608 81.3348 61.4369 81.084 60.5584 81.651C59.678 82.2181 59.4271 83.3891 59.9923 84.2667C60.5717 85.166 61.1293 85.9262 61.7437 86.6504C63.3227 88.5437 68.1792 93.0065 76.1852 99.9274C77.0211 100.642 78.0444 101 79.0725 101C80.1006 101 81.1315 100.639 81.9731 99.9199C89.9716 93.0074 94.8261 88.5446 96.4137 86.6428C99.3655 83.0653 100.681 79.8506 100.681 76.2238C100.681 72.7154 99.4884 69.5006 97.3319 67.1814C95.1707 64.8251 92.185 63.5282 88.9198 63.5282L88.9198 63.5278Z" fill="white"/>
<path d="M6.2623 29.6815L9.62003 31.1242L10.8942 35.121C11.306 36.4094 12.4033 37.2406 13.6926 37.2406C14.9792 37.2406 16.0773 36.4094 16.4881 35.121L17.7633 31.1252L21.1239 29.6806C22.241 29.1997 22.9614 28.0637 22.9604 26.7857C22.9586 25.5087 22.2353 24.3746 21.123 23.8955L17.7652 22.4528L16.4891 18.454C16.0783 17.1656 14.9801 16.3344 13.6937 16.3344C12.4052 16.3344 11.3071 17.1656 10.8953 18.454L9.6201 22.4528L6.26408 23.8955C5.147 24.3745 4.42565 25.5077 4.42279 26.7857C4.42279 28.0628 5.14416 29.1988 6.26216 29.6815L6.2623 29.6815ZM11.4595 25.786C12.2528 25.4405 12.8634 24.7504 13.136 23.8946L13.6927 22.147L14.2484 23.8927C14.5201 24.7513 15.1325 25.4405 15.9306 25.7888L18.2604 26.7876L15.9249 27.791C15.1316 28.1366 14.521 28.8267 14.2484 29.6825L13.6927 31.4281L13.136 29.6844C12.8643 28.8257 12.2518 28.1366 11.4538 27.7882L9.12402 26.7876L11.4595 25.786Z" fill="white"/>
<path d="M74.2893 16.6141L79.0463 18.658L80.8365 24.2737C81.3004 25.7278 82.5292 26.6678 83.9691 26.6678C85.4071 26.6678 86.6368 25.7287 87.0997 24.2737L88.8899 18.658L93.6479 16.6113C94.9032 16.0717 95.7164 14.7842 95.7164 13.3321C95.7164 11.8799 94.9041 10.5923 93.646 10.0509L88.8909 8.00896L87.0989 2.3894C86.6359 0.939095 85.4072 0 83.9682 0C82.5274 0 81.2995 0.939096 80.8376 2.39224L79.0446 8.0118L74.2885 10.0557C73.0304 10.5953 72.22 11.8827 72.22 13.3349C72.22 14.7861 73.0313 16.0727 74.2894 16.6141L74.2893 16.6141ZM80.7285 11.4112C81.6184 11.0268 82.3066 10.2477 82.6162 9.27641L83.967 5.03824L85.3179 9.27932C85.6275 10.2478 86.3157 11.0269 87.2103 11.4141L91.6863 13.3339L87.2132 15.2576C86.3196 15.6372 85.6285 16.4163 85.3161 17.3923L83.9681 21.6285L82.6172 17.3875C82.3048 16.4133 81.6137 15.6352 80.7238 15.2546L76.2479 13.331L80.7285 11.4112Z" fill="white"/>
</svg>
