<svg width="138" height="91" viewBox="0 0 138 91" fill="none" xmlns="http://www.w3.org/2000/svg">
<path d="M137.999 23.4888C137.996 21.3924 137.379 19.2675 136.017 17.514L125.083 3.51592C123.251 1.18918 120.466 0.00496927 117.68 0C116.023 0 114.335 0.425767 112.844 1.35489L102.182 7.99086C101.061 8.7065 99.1385 9.19694 97.2811 9.18531C95.8389 9.19178 94.4446 8.90319 93.5236 8.44766L83.0832 3.38795C81.3991 2.57657 79.5223 2.24399 77.634 2.24141C74.923 2.25435 72.1772 2.9208 69.9703 4.45041L68.7519 5.30579C67.7779 4.8192 66.2905 4.07901 64.604 3.23914C62.5823 2.24787 60.2051 1.84801 57.8045 1.84022C55.6354 1.84669 53.4675 2.18055 51.5636 2.98547L44.4522 6.0214C43.2946 6.52349 41.4541 6.8509 39.6252 6.84315C37.7963 6.85092 35.9584 6.52351 34.8022 6.0214L27.6845 2.98418C26.3859 2.4303 24.9981 2.1935 23.623 2.19221C22.0399 2.1935 20.4645 2.50538 19.0016 3.09937C17.5401 3.69594 16.1833 4.57591 15.1034 5.78331L2.14451 20.3029C0.710117 21.9088 -0.00257571 23.9288 6.99417e-06 25.9191C-0.00257969 28.2912 1.01147 30.6711 2.9684 32.3391L15.0568 42.658L9.32318 48.6416C7.74263 50.2916 6.95494 52.4319 6.95494 54.5491C6.95235 56.8008 7.8461 59.0731 9.61552 60.7478L10.7796 61.8542C11.8751 62.8947 13.1931 63.5559 14.5719 63.9092C13.8799 65.1813 13.5022 66.5763 13.5061 67.9741C13.5035 70.2271 14.3972 72.4981 16.164 74.1741L16.1615 74.1728L17.3281 75.2831C18.9889 76.858 21.1412 77.6422 23.2637 77.6409C24.4032 77.6422 25.5453 77.4132 26.6176 76.9641C26.994 78.4924 27.7713 79.9444 28.9949 81.1065L30.1616 82.2168C31.8223 83.7917 33.972 84.576 36.0971 84.5747C37.7579 84.576 39.4265 84.0868 40.8622 83.1356C41.2826 84.4879 42.0017 85.7704 43.0986 86.8122L44.2652 87.9226C45.9221 89.4975 48.0757 90.2817 50.1968 90.2804C52.4564 90.2817 54.7381 89.3939 56.4235 87.634L61.4912 82.3387L68.3774 88.7146C70.0253 90.2442 72.1412 91.0052 74.2303 91C76.5248 91.0052 78.8387 90.0851 80.5281 88.2759L81.6275 87.0983C82.5756 86.0786 83.1951 84.8725 83.5547 83.6122L86.2217 86.0748C87.8734 87.598 89.9855 88.3563 92.0706 88.355C94.3677 88.3563 96.688 87.4375 98.3787 85.6271L99.4716 84.4507C100.734 83.101 101.444 81.4303 101.664 79.7233C102.368 79.9032 103.082 80.0261 103.801 80.0261C106.098 80.0261 108.413 79.1086 110.105 77.2995L111.2 76.1231C112.732 74.481 113.495 72.373 113.491 70.2958C113.491 69.6514 113.398 69.0095 113.256 68.3754C115.161 68.1231 117.008 67.2729 118.412 65.7627L119.512 64.585C121.043 62.9429 121.802 60.8349 121.802 58.7564C121.805 56.4685 120.884 54.1612 119.064 52.4789L117.009 50.5792L135.563 30.0551C137.229 28.2097 137.997 25.8312 138 23.489L137.999 23.4888ZM12.8535 57.3693C12.0477 56.6071 11.6493 55.5912 11.6455 54.5495C11.6481 53.5725 11.9986 52.6187 12.7177 51.8668L24.4634 39.604C25.2291 38.8055 26.2496 38.4057 27.2973 38.4044C28.2777 38.4057 29.2349 38.7589 29.9928 39.4733L31.153 40.5811C31.153 40.5811 32.3546 42.3591 32.3572 43.4021C32.3546 44.1838 32.1192 44.9447 31.6626 45.6034C31.6238 45.6422 18.9858 58.82 18.9858 58.82C18.3145 59.2949 17.5216 59.5395 16.7132 59.5434C15.7302 59.5408 14.7692 59.1888 14.0177 58.477L12.8535 57.3693ZM23.2641 72.9695C22.2811 72.9682 21.3227 72.6149 20.5687 71.9032L19.402 70.7941L19.3994 70.7928C18.6001 70.0332 18.1978 69.0147 18.1978 67.973C18.1978 66.996 18.5509 66.0423 19.2675 65.2904C19.2675 65.2904 34.923 48.9849 35.0551 48.8285C35.8027 48.109 36.7676 47.7363 37.7636 47.735C38.7466 47.7363 39.705 48.0883 40.459 48.8013L41.6257 49.9117C42.4289 50.6713 42.8273 51.6871 42.8299 52.7315C42.8273 53.7085 42.4742 54.6648 41.7576 55.4154L26.0955 71.7726C25.3311 72.5684 24.3119 72.967 23.2642 72.9696L23.2641 72.9695ZM36.0975 79.9046C35.1145 79.9033 34.1561 79.55 33.4021 78.8357L32.2328 77.7266C31.4296 76.9657 31.0287 75.9486 31.0287 74.9068C31.0287 74.0346 31.3248 73.1883 31.8927 72.4843L42.7963 61.0991C43.5323 60.4352 44.4532 60.0858 45.409 60.0858C46.392 60.0871 47.3505 60.4391 48.1045 61.1521L49.2738 62.2625C50.0731 63.0221 50.4753 64.0379 50.4779 65.0797C50.4753 66.0593 50.1184 67.0143 49.4057 67.7636L38.9275 78.7036C38.1644 79.5034 37.1452 79.902 36.0975 79.9045L36.0975 79.9046ZM53.0272 84.4117C52.2654 85.2089 51.2449 85.6075 50.1972 85.6101C49.2142 85.6088 48.2557 85.2555 47.5017 84.5411L46.335 83.4321C45.5357 82.6725 45.1334 81.654 45.1309 80.6123C45.1334 79.6327 45.4865 78.6777 46.2031 77.9296L52.8165 71.0217C53.5822 70.2246 54.6027 69.8247 55.6504 69.8234C56.6308 69.8247 57.5918 70.1767 58.3459 70.8923L59.5151 72.0013C60.3145 72.761 60.7128 73.7768 60.7167 74.8186C60.7141 75.7982 60.361 76.7532 59.6444 77.5025L53.0272 84.4117ZM116.075 61.4106L114.98 62.587C114.214 63.4061 113.176 63.8202 112.113 63.8215C111.148 63.8202 110.206 63.4812 109.455 62.7875L90.9827 45.6966L87.7879 49.1181L107.561 67.4447C108.383 68.207 108.798 69.2422 108.804 70.3008C108.797 71.2636 108.457 72.2018 107.762 72.9485L106.669 74.1248C105.904 74.944 104.866 75.3568 103.803 75.3594C102.838 75.3568 101.892 75.0151 101.148 74.3267L82.6712 57.2357L79.4803 60.6572L95.8782 75.8291C96.6685 76.5874 97.0733 77.5955 97.0733 78.6307C97.0733 79.5909 96.7332 80.5305 96.0386 81.2759L94.943 82.4522C94.1812 83.2714 93.14 83.6855 92.0729 83.688C91.1054 83.6855 90.1613 83.3438 89.415 82.6554L73.0505 67.5392H73.0479L73.0453 67.5366L69.8609 70.9647L69.8635 70.9673L69.9243 71.0255L78.1208 78.5934C78.8464 79.3401 79.2228 80.2977 79.2266 81.2877C79.224 82.2427 78.8865 83.1783 78.1919 83.9237L77.0964 85.1013C76.3307 85.9205 75.2959 86.3307 74.2366 86.3346C73.2717 86.332 72.3288 85.993 71.5812 85.3006L64.4453 78.6892C65.0662 77.4702 65.4128 76.1476 65.4128 74.8198C65.4154 72.5681 64.5217 70.2984 62.7549 68.6211L61.5856 67.5108C59.9287 65.9372 57.7778 65.1517 55.6566 65.1542C55.4924 65.1542 55.3255 65.1918 55.1638 65.2008C55.1638 65.162 55.1729 65.1206 55.1729 65.0818C55.1755 62.8301 52.5149 58.8804 52.5149 58.8804L51.3483 57.7727C50.1079 56.5964 48.5946 55.8613 47.0206 55.5663C47.3452 54.6475 47.5289 53.6898 47.5289 52.7309C47.5289 50.4792 46.6377 48.2082 44.8709 46.5323L43.7043 45.4219C42.0435 43.847 39.8938 43.0602 37.7727 43.0628C37.5243 43.0628 37.2799 43.1133 37.0341 43.1353C36.9669 40.9729 36.0964 38.813 34.4033 37.2033V37.202L33.2392 36.0956C31.5785 34.5194 29.4287 33.7326 27.3076 33.7339C25.0454 33.7326 22.7663 34.6203 21.081 36.3803L18.3092 39.2752L6.02805 28.7943C5.14463 28.0386 4.70488 26.9929 4.701 25.9201C4.70359 25.0208 5.01013 24.1408 5.662 23.4096L18.6209 8.89005C19.1357 8.31289 19.8962 7.79008 20.7861 7.42772C21.6773 7.06536 22.6887 6.8661 23.6342 6.86739C24.4569 6.86739 25.2303 7.01621 25.8486 7.28278L32.9636 10.32C34.9697 11.165 37.2979 11.5119 39.6376 11.5196C41.98 11.5119 44.3057 11.165 46.3116 10.32L53.4229 7.28408C54.5185 6.80527 56.1728 6.50894 57.8179 6.5154C59.6364 6.50505 61.4588 6.88034 62.5157 7.42126C63.187 7.75513 63.8234 8.07217 64.4145 8.36854L57.1624 13.4687C54.8316 15.1083 53.5757 17.7157 53.5797 20.3468C53.5771 22.0886 54.1281 23.8614 55.2508 25.3651L55.2482 25.3625L56.2066 26.6501C58.0252 29.0688 60.8628 30.3138 63.6968 30.3201C65.2981 30.3201 66.9291 29.9151 68.3828 29.0428L72.7197 26.4366C73.6044 25.8956 74.9405 25.5527 76.322 25.5592C77.9452 25.5501 79.5801 26.0302 80.5632 26.7536L92.5622 35.3604C95.2331 37.2743 99.5829 40.8253 101.992 43.0588L115.881 55.9064C116.704 56.6699 117.119 57.7013 117.121 58.7598C117.115 59.7226 116.772 60.6634 116.075 61.4101L116.075 61.4106ZM132.08 26.9338L113.577 47.4036L105.177 39.6339C102.546 37.2037 98.2064 33.6592 95.2962 31.5678L83.2998 22.961C81.2666 21.5194 78.7755 20.897 76.3139 20.8866C74.2186 20.8931 72.1078 21.3499 70.2866 22.4356L65.9523 25.0419C65.2875 25.4418 64.5037 25.6463 63.6901 25.6475C62.235 25.6527 60.7786 24.9733 59.9664 23.8669L59.0118 22.5806L59.0093 22.578C58.5009 21.8921 58.2643 21.1234 58.2617 20.3457C58.2681 19.1694 58.8101 18.0267 59.8616 17.2852L72.6858 8.27059C73.7942 7.46696 75.7667 6.90404 77.6409 6.91829C78.9421 6.91182 80.1864 7.17452 81.0375 7.5951L91.4779 12.6548C93.2577 13.5102 95.2662 13.8596 97.288 13.8648C99.8852 13.8518 102.51 13.2876 104.672 11.9586L115.337 5.31997C116.017 4.8942 116.834 4.67552 117.685 4.67552C119.125 4.67293 120.567 5.32513 121.385 6.39018L132.319 20.3883C132.949 21.1906 133.315 22.3216 133.315 23.4928C133.314 24.8011 132.851 26.0913 132.08 26.9339L132.08 26.9338Z" fill="white"/>
</svg>
